<svg width="600" height="555" viewBox="0 0 600 555" fill="none" xmlns="http://www.w3.org/2000/svg">
<g filter="url(#filter0_d)">
<rect x="30" y="20" width="540" height="495" rx="24" fill="white"/>
</g>
<path opacity="0.6" d="M122.512 96.512C121.392 97.6427 120.021 98.208 118.4 98.208C116.779 98.208 115.408 97.6427 114.288 96.512C113.168 95.3813 112.608 94.0107 112.608 92.4C112.608 90.7787 113.168 89.408 114.288 88.288C115.408 87.1573 116.779 86.592 118.4 86.592C120.021 86.592 121.392 87.1573 122.512 88.288C123.643 89.408 124.208 90.7787 124.208 92.4C124.208 94.0107 123.643 95.3813 122.512 96.512ZM115.312 95.504C116.144 96.336 117.173 96.752 118.4 96.752C119.627 96.752 120.651 96.336 121.472 95.504C122.304 94.6613 122.72 93.6267 122.72 92.4C122.72 91.1627 122.304 90.128 121.472 89.296C120.651 88.4533 119.627 88.032 118.4 88.032C117.173 88.032 116.144 88.4533 115.312 89.296C114.491 90.128 114.08 91.1627 114.08 92.4C114.08 93.6267 114.491 94.6613 115.312 95.504ZM132.212 90V98H130.82V91.344H127.668V94.608C127.668 95.92 127.402 96.8373 126.868 97.36C126.346 97.872 125.604 98.0853 124.644 98V96.688C125.188 96.7627 125.594 96.6453 125.86 96.336C126.138 96.016 126.276 95.4293 126.276 94.576V90H132.212ZM135.298 94.64C135.436 95.3547 135.762 95.9093 136.274 96.304C136.796 96.6987 137.436 96.896 138.194 96.896C139.25 96.896 140.018 96.5067 140.498 95.728L141.682 96.4C140.903 97.6053 139.73 98.208 138.162 98.208C136.892 98.208 135.858 97.8133 135.058 97.024C134.268 96.224 133.874 95.216 133.874 94C133.874 92.7947 134.263 91.792 135.042 90.992C135.82 90.192 136.828 89.792 138.066 89.792C139.239 89.792 140.194 90.208 140.93 91.04C141.676 91.8613 142.05 92.8533 142.05 94.016C142.05 94.2187 142.034 94.4267 142.002 94.64H135.298ZM138.066 91.104C137.319 91.104 136.7 91.3173 136.21 91.744C135.719 92.16 135.415 92.72 135.298 93.424H140.642C140.524 92.6667 140.226 92.0907 139.746 91.696C139.266 91.3013 138.706 91.104 138.066 91.104ZM148.898 90V91.344H145.042V98H143.65V90H148.898ZM158.471 91.2C159.441 91.2 160.263 91.5307 160.935 92.192C161.607 92.8427 161.943 93.6427 161.943 94.592C161.943 95.5627 161.607 96.3733 160.935 97.024C160.273 97.6747 159.452 98 158.471 98H154.263V86.8H160.983V88.208H155.751V91.2H158.471ZM158.471 96.608C159.025 96.608 159.495 96.416 159.879 96.032C160.273 95.648 160.471 95.168 160.471 94.592C160.471 94.0267 160.273 93.552 159.879 93.168C159.495 92.784 159.025 92.592 158.471 92.592H155.751V96.608H158.471ZM164.045 98.176C163.757 98.176 163.512 98.0747 163.309 97.872C163.107 97.6693 163.005 97.424 163.005 97.136C163.005 96.848 163.107 96.6027 163.309 96.4C163.512 96.1973 163.757 96.096 164.045 96.096C164.344 96.096 164.589 96.1973 164.781 96.4C164.984 96.6027 165.085 96.848 165.085 97.136C165.085 97.424 164.984 97.6693 164.781 97.872C164.589 98.0747 164.344 98.176 164.045 98.176Z" fill="#000429"/>
<path opacity="0.6" d="M100.894 124.8H102.366V136H100.894V130.96H95.4536V136H93.9656V124.8H95.4536V129.552H100.894V124.8ZM111.243 128H112.635V136H111.243V134.624C110.549 135.68 109.541 136.208 108.219 136.208C107.099 136.208 106.144 135.803 105.355 134.992C104.565 134.171 104.171 133.173 104.171 132C104.171 130.827 104.565 129.835 105.355 129.024C106.144 128.203 107.099 127.792 108.219 127.792C109.541 127.792 110.549 128.32 111.243 129.376V128ZM108.395 134.864C109.205 134.864 109.883 134.592 110.427 134.048C110.971 133.493 111.243 132.811 111.243 132C111.243 131.189 110.971 130.512 110.427 129.968C109.883 129.413 109.205 129.136 108.395 129.136C107.595 129.136 106.923 129.413 106.379 129.968C105.835 130.512 105.562 131.189 105.562 132C105.562 132.811 105.835 133.493 106.379 134.048C106.923 134.592 107.595 134.864 108.395 134.864ZM120.696 128V129.344H117.976V136H116.584V129.344H113.848V128H120.696ZM128.227 128H129.619V136H128.227V134.624C127.534 135.68 126.526 136.208 125.203 136.208C124.083 136.208 123.128 135.803 122.339 134.992C121.55 134.171 121.155 133.173 121.155 132C121.155 130.827 121.55 129.835 122.339 129.024C123.128 128.203 124.083 127.792 125.203 127.792C126.526 127.792 127.534 128.32 128.227 129.376V128ZM125.379 134.864C126.19 134.864 126.867 134.592 127.411 134.048C127.955 133.493 128.227 132.811 128.227 132C128.227 131.189 127.955 130.512 127.411 129.968C126.867 129.413 126.19 129.136 125.379 129.136C124.579 129.136 123.907 129.413 123.363 129.968C122.819 130.512 122.547 131.189 122.547 132C122.547 132.811 122.819 133.493 123.363 134.048C123.907 134.592 124.579 134.864 125.379 134.864ZM138.4 128V136H137.008V129.344H133.856V132.608C133.856 133.92 133.589 134.837 133.056 135.36C132.533 135.872 131.792 136.085 130.832 136V134.688C131.376 134.763 131.781 134.645 132.048 134.336C132.325 134.016 132.464 133.429 132.464 132.576V128H138.4ZM141.213 126.544C140.946 126.544 140.722 126.453 140.541 126.272C140.36 126.091 140.269 125.872 140.269 125.616C140.269 125.36 140.36 125.141 140.541 124.96C140.722 124.768 140.946 124.672 141.213 124.672C141.469 124.672 141.688 124.768 141.869 124.96C142.05 125.141 142.141 125.36 142.141 125.616C142.141 125.872 142.05 126.091 141.869 126.272C141.688 126.453 141.469 126.544 141.213 126.544ZM140.509 136V128H141.901V136H140.509ZM150.009 128V136H148.633V133.12H147.465L145.225 136H143.529L145.865 133.04C145.267 132.891 144.782 132.592 144.409 132.144C144.035 131.696 143.849 131.173 143.849 130.576C143.849 129.84 144.11 129.227 144.633 128.736C145.155 128.245 145.811 128 146.601 128H150.009ZM146.649 131.872H148.633V129.296H146.649C146.254 129.296 145.918 129.413 145.641 129.648C145.363 129.883 145.225 130.197 145.225 130.592C145.225 130.976 145.363 131.285 145.641 131.52C145.918 131.755 146.254 131.872 146.649 131.872ZM163.431 124.8V126.208H160.119V136H158.647V126.208H155.351V124.8H163.431ZM164.045 136.176C163.757 136.176 163.512 136.075 163.309 135.872C163.107 135.669 163.005 135.424 163.005 135.136C163.005 134.848 163.107 134.603 163.309 134.4C163.512 134.197 163.757 134.096 164.045 134.096C164.344 134.096 164.589 134.197 164.781 134.4C164.984 134.603 165.085 134.848 165.085 135.136C165.085 135.424 164.984 135.669 164.781 135.872C164.589 136.075 164.344 136.176 164.045 136.176Z" fill="#000429"/>
<path opacity="0.6" d="M101.106 173.512C99.9858 174.643 98.6151 175.208 96.9938 175.208C95.3724 175.208 94.0018 174.643 92.8818 173.512C91.7618 172.381 91.2018 171.011 91.2018 169.4C91.2018 167.779 91.7618 166.408 92.8818 165.288C94.0018 164.157 95.3724 163.592 96.9938 163.592C98.6151 163.592 99.9858 164.157 101.106 165.288C102.236 166.408 102.802 167.779 102.802 169.4C102.802 171.011 102.236 172.381 101.106 173.512ZM93.9058 172.504C94.7378 173.336 95.7671 173.752 96.9938 173.752C98.2204 173.752 99.2444 173.336 100.066 172.504C100.898 171.661 101.314 170.627 101.314 169.4C101.314 168.163 100.898 167.128 100.066 166.296C99.2444 165.453 98.2204 165.032 96.9938 165.032C95.7671 165.032 94.7378 165.453 93.9058 166.296C93.0844 167.128 92.6738 168.163 92.6738 169.4C92.6738 170.627 93.0844 171.661 93.9058 172.504ZM111.215 175H109.487L105.839 171.208V175H104.447V167H105.839V170.536L109.295 167H111.087L107.263 170.872L111.215 175ZM115.535 175.208C114.329 175.208 113.327 174.808 112.527 174.008C111.727 173.197 111.327 172.195 111.327 171C111.327 169.805 111.727 168.808 112.527 168.008C113.327 167.197 114.329 166.792 115.535 166.792C116.324 166.792 117.033 166.984 117.663 167.368C118.292 167.741 118.761 168.248 119.071 168.888L117.903 169.56C117.7 169.133 117.385 168.792 116.959 168.536C116.543 168.28 116.068 168.152 115.535 168.152C114.735 168.152 114.063 168.424 113.519 168.968C112.985 169.512 112.719 170.189 112.719 171C112.719 171.8 112.985 172.472 113.519 173.016C114.063 173.56 114.735 173.832 115.535 173.832C116.068 173.832 116.548 173.709 116.975 173.464C117.401 173.208 117.727 172.867 117.951 172.44L119.135 173.128C118.793 173.757 118.303 174.264 117.663 174.648C117.023 175.021 116.313 175.208 115.535 175.208ZM127.024 167H128.416V175H127.024V173.624C126.33 174.68 125.322 175.208 124 175.208C122.88 175.208 121.925 174.803 121.136 173.992C120.346 173.171 119.952 172.173 119.952 171C119.952 169.827 120.346 168.835 121.136 168.024C121.925 167.203 122.88 166.792 124 166.792C125.322 166.792 126.33 167.32 127.024 168.376V167ZM124.176 173.864C124.986 173.864 125.664 173.592 126.208 173.048C126.752 172.493 127.024 171.811 127.024 171C127.024 170.189 126.752 169.512 126.208 168.968C125.664 168.413 124.986 168.136 124.176 168.136C123.376 168.136 122.704 168.413 122.16 168.968C121.616 169.512 121.344 170.189 121.344 171C121.344 171.811 121.616 172.493 122.16 173.048C122.704 173.592 123.376 173.864 124.176 173.864ZM136.061 167H137.453V175H136.061V171.656H131.917V175H130.525V167H131.917V170.328H136.061V167ZM146.196 167H147.588V175H146.196V173.624C145.502 174.68 144.494 175.208 143.172 175.208C142.052 175.208 141.097 174.803 140.308 173.992C139.518 173.171 139.124 172.173 139.124 171C139.124 169.827 139.518 168.835 140.308 168.024C141.097 167.203 142.052 166.792 143.172 166.792C144.494 166.792 145.502 167.32 146.196 168.376V167ZM143.348 173.864C144.158 173.864 144.836 173.592 145.38 173.048C145.924 172.493 146.196 171.811 146.196 171C146.196 170.189 145.924 169.512 145.38 168.968C144.836 168.413 144.158 168.136 143.348 168.136C142.548 168.136 141.876 168.413 141.332 168.968C140.788 169.512 140.516 170.189 140.516 171C140.516 171.811 140.788 172.493 141.332 173.048C141.876 173.592 142.548 173.864 143.348 173.864ZM161.985 175H160.161L155.329 169.624V175H153.841V163.8H155.329V168.856L160.001 163.8H161.825L156.881 169.24L161.985 175ZM164.045 175.176C163.757 175.176 163.512 175.075 163.309 174.872C163.107 174.669 163.005 174.424 163.005 174.136C163.005 173.848 163.107 173.603 163.309 173.4C163.512 173.197 163.757 173.096 164.045 173.096C164.344 173.096 164.589 173.197 164.781 173.4C164.984 173.603 165.085 173.848 165.085 174.136C165.085 174.424 164.984 174.669 164.781 174.872C164.589 175.075 164.344 175.176 164.045 175.176Z" fill="#000429"/>
<path opacity="0.6" d="M122.512 212.512C121.392 213.643 120.021 214.208 118.4 214.208C116.779 214.208 115.408 213.643 114.288 212.512C113.168 211.381 112.608 210.011 112.608 208.4C112.608 206.779 113.168 205.408 114.288 204.288C115.408 203.157 116.779 202.592 118.4 202.592C120.021 202.592 121.392 203.157 122.512 204.288C123.643 205.408 124.208 206.779 124.208 208.4C124.208 210.011 123.643 211.381 122.512 212.512ZM115.312 211.504C116.144 212.336 117.173 212.752 118.4 212.752C119.627 212.752 120.651 212.336 121.472 211.504C122.304 210.661 122.72 209.627 122.72 208.4C122.72 207.163 122.304 206.128 121.472 205.296C120.651 204.453 119.627 204.032 118.4 204.032C117.173 204.032 116.144 204.453 115.312 205.296C114.491 206.128 114.08 207.163 114.08 208.4C114.08 209.627 114.491 210.661 115.312 211.504ZM132.212 206V214H130.82V207.344H127.668V210.608C127.668 211.92 127.402 212.837 126.868 213.36C126.346 213.872 125.604 214.085 124.644 214V212.688C125.188 212.763 125.594 212.645 125.86 212.336C126.138 212.016 126.276 211.429 126.276 210.576V206H132.212ZM135.298 210.64C135.436 211.355 135.762 211.909 136.274 212.304C136.796 212.699 137.436 212.896 138.194 212.896C139.25 212.896 140.018 212.507 140.498 211.728L141.682 212.4C140.903 213.605 139.73 214.208 138.162 214.208C136.892 214.208 135.858 213.813 135.058 213.024C134.268 212.224 133.874 211.216 133.874 210C133.874 208.795 134.263 207.792 135.042 206.992C135.82 206.192 136.828 205.792 138.066 205.792C139.239 205.792 140.194 206.208 140.93 207.04C141.676 207.861 142.05 208.853 142.05 210.016C142.05 210.219 142.034 210.427 142.002 210.64H135.298ZM138.066 207.104C137.319 207.104 136.7 207.317 136.21 207.744C135.719 208.16 135.415 208.72 135.298 209.424H140.642C140.524 208.667 140.226 208.091 139.746 207.696C139.266 207.301 138.706 207.104 138.066 207.104ZM148.898 206V207.344H145.042V214H143.65V206H148.898ZM158.471 207.2C159.441 207.2 160.263 207.531 160.935 208.192C161.607 208.843 161.943 209.643 161.943 210.592C161.943 211.563 161.607 212.373 160.935 213.024C160.273 213.675 159.452 214 158.471 214H154.263V202.8H160.983V204.208H155.751V207.2H158.471ZM158.471 212.608C159.025 212.608 159.495 212.416 159.879 212.032C160.273 211.648 160.471 211.168 160.471 210.592C160.471 210.027 160.273 209.552 159.879 209.168C159.495 208.784 159.025 208.592 158.471 208.592H155.751V212.608H158.471ZM164.045 214.176C163.757 214.176 163.512 214.075 163.309 213.872C163.107 213.669 163.005 213.424 163.005 213.136C163.005 212.848 163.107 212.603 163.309 212.4C163.512 212.197 163.757 212.096 164.045 212.096C164.344 212.096 164.589 212.197 164.781 212.4C164.984 212.603 165.085 212.848 165.085 213.136C165.085 213.424 164.984 213.669 164.781 213.872C164.589 214.075 164.344 214.176 164.045 214.176Z" fill="#000429"/>
<path opacity="0.6" d="M98.2084 253V251.656C98.9444 251.763 99.4937 251.56 99.8564 251.048C100.23 250.525 100.416 249.56 100.416 248.152V241.8H107.808V253H106.32V243.208H101.904V248.152C101.904 249.155 101.808 249.997 101.616 250.68C101.435 251.352 101.168 251.859 100.816 252.2C100.475 252.541 100.091 252.776 99.6644 252.904C99.2484 253.021 98.763 253.053 98.2084 253ZM117.064 244.792C118.237 244.792 119.229 245.197 120.04 246.008C120.861 246.819 121.272 247.816 121.272 249C121.272 250.184 120.861 251.181 120.04 251.992C119.229 252.803 118.237 253.208 117.064 253.208C116.008 253.208 115.096 252.872 114.328 252.2C113.56 251.528 113.101 250.68 112.952 249.656H111.464V253H110.072V245H111.464V248.328H112.952C113.101 247.304 113.56 246.461 114.328 245.8C115.106 245.128 116.018 244.792 117.064 244.792ZM117.064 251.848C117.853 251.848 118.52 251.576 119.064 251.032C119.608 250.488 119.88 249.811 119.88 249C119.88 248.189 119.608 247.512 119.064 246.968C118.52 246.424 117.853 246.152 117.064 246.152C116.264 246.152 115.592 246.424 115.048 246.968C114.504 247.512 114.232 248.189 114.232 249C114.232 249.811 114.504 250.488 115.048 251.032C115.592 251.576 116.264 251.848 117.064 251.848ZM126.563 253.208C125.379 253.208 124.403 252.819 123.635 252.04C122.867 251.261 122.483 250.259 122.483 249.032C122.483 247.667 122.68 246.616 123.075 245.88C123.48 245.144 124.302 244.477 125.539 243.88C125.763 243.773 126.067 243.635 126.451 243.464C126.846 243.293 127.134 243.165 127.315 243.08C127.496 242.984 127.699 242.861 127.923 242.712C128.147 242.552 128.312 242.381 128.419 242.2C128.536 242.008 128.622 241.789 128.675 241.544L129.795 242.184C129.763 242.355 129.72 242.515 129.667 242.664C129.614 242.803 129.534 242.941 129.427 243.08C129.331 243.208 129.246 243.32 129.171 243.416C129.096 243.512 128.968 243.619 128.787 243.736C128.616 243.843 128.488 243.923 128.403 243.976C128.328 244.029 128.174 244.109 127.939 244.216C127.715 244.323 127.56 244.397 127.475 244.44C127.4 244.472 127.224 244.547 126.947 244.664C126.67 244.771 126.499 244.84 126.435 244.872C125.71 245.181 125.176 245.496 124.835 245.816C124.504 246.136 124.264 246.541 124.115 247.032C124.456 246.605 124.883 246.291 125.395 246.088C125.907 245.885 126.419 245.784 126.931 245.784C127.934 245.784 128.782 246.125 129.475 246.808C130.179 247.491 130.531 248.371 130.531 249.448C130.531 250.536 130.158 251.437 129.411 252.152C128.664 252.856 127.715 253.208 126.563 253.208ZM124.691 251.16C125.192 251.629 125.816 251.864 126.563 251.864C127.31 251.864 127.923 251.635 128.403 251.176C128.894 250.717 129.139 250.141 129.139 249.448C129.139 248.733 128.904 248.152 128.435 247.704C127.976 247.245 127.368 247.016 126.611 247.016C125.928 247.016 125.31 247.235 124.755 247.672C124.211 248.099 123.939 248.664 123.939 249.368C123.939 250.093 124.19 250.691 124.691 251.16ZM138.761 251.992C137.94 252.803 136.942 253.208 135.769 253.208C134.596 253.208 133.598 252.803 132.777 251.992C131.966 251.181 131.561 250.184 131.561 249C131.561 247.816 131.966 246.819 132.777 246.008C133.598 245.197 134.596 244.792 135.769 244.792C136.942 244.792 137.94 245.197 138.761 246.008C139.582 246.819 139.993 247.816 139.993 249C139.993 250.184 139.582 251.181 138.761 251.992ZM135.769 251.848C136.569 251.848 137.241 251.576 137.785 251.032C138.329 250.488 138.601 249.811 138.601 249C138.601 248.189 138.329 247.512 137.785 246.968C137.241 246.424 136.569 246.152 135.769 246.152C134.98 246.152 134.313 246.424 133.769 246.968C133.225 247.512 132.953 248.189 132.953 249C132.953 249.811 133.225 250.488 133.769 251.032C134.313 251.576 134.98 251.848 135.769 251.848ZM146.962 248.888C147.783 249.229 148.194 249.848 148.194 250.744C148.194 251.405 147.97 251.949 147.522 252.376C147.085 252.792 146.455 253 145.634 253H141.634V245H145.314C146.114 245 146.733 245.203 147.17 245.608C147.607 246.003 147.826 246.525 147.826 247.176C147.826 247.944 147.538 248.515 146.962 248.888ZM145.25 246.248H142.994V248.344H145.25C146.061 248.344 146.466 247.987 146.466 247.272C146.466 246.589 146.061 246.248 145.25 246.248ZM145.554 251.736C145.959 251.736 146.269 251.64 146.482 251.448C146.706 251.256 146.818 250.984 146.818 250.632C146.818 250.301 146.706 250.045 146.482 249.864C146.269 249.672 145.959 249.576 145.554 249.576H142.994V251.736H145.554ZM161.985 253H160.161L155.329 247.624V253H153.841V241.8H155.329V246.856L160.001 241.8H161.825L156.881 247.24L161.985 253ZM164.045 253.176C163.757 253.176 163.512 253.075 163.309 252.872C163.107 252.669 163.005 252.424 163.005 252.136C163.005 251.848 163.107 251.603 163.309 251.4C163.512 251.197 163.757 251.096 164.045 251.096C164.344 251.096 164.589 251.197 164.781 251.4C164.984 251.603 165.085 251.848 165.085 252.136C165.085 252.424 164.984 252.669 164.781 252.872C164.589 253.075 164.344 253.176 164.045 253.176Z" fill="#000429"/>
<path opacity="0.6" d="M99.1736 289.592H100.374V293.144H98.8856V291H91.4936V293.144H90.0056V289.592H90.9816C91.675 288.728 92.0216 287.416 92.0216 285.656V279.8H99.1736V289.592ZM92.6616 289.592H97.6856V281.192H93.5096V285.688C93.5096 287.384 93.227 288.685 92.6616 289.592ZM109.947 283V291H108.587V285.192L106.043 289.288H105.867L103.323 285.192V291H101.947V283H103.435L105.947 287.048L108.459 283H109.947ZM117.88 283H119V291H117.624V285.384L113.192 291H112.072V283H113.448V288.616L117.88 283ZM127.071 283V284.344H124.351V291H122.959V284.344H120.223V283H127.071ZM132.706 282.792C133.826 282.792 134.781 283.203 135.57 284.024C136.36 284.835 136.754 285.827 136.754 287C136.754 288.173 136.36 289.171 135.57 289.992C134.781 290.803 133.826 291.208 132.706 291.208C131.384 291.208 130.376 290.68 129.682 289.624V294.2H128.29V283H129.682V284.376C130.376 283.32 131.384 282.792 132.706 282.792ZM132.53 289.864C133.33 289.864 134.002 289.592 134.546 289.048C135.09 288.493 135.362 287.811 135.362 287C135.362 286.189 135.09 285.512 134.546 284.968C134.002 284.413 133.33 284.136 132.53 284.136C131.72 284.136 131.042 284.413 130.498 284.968C129.954 285.512 129.682 286.189 129.682 287C129.682 287.811 129.954 288.493 130.498 289.048C131.042 289.592 131.72 289.864 132.53 289.864ZM145.167 289.992C144.346 290.803 143.349 291.208 142.175 291.208C141.002 291.208 140.005 290.803 139.183 289.992C138.373 289.181 137.967 288.184 137.967 287C137.967 285.816 138.373 284.819 139.183 284.008C140.005 283.197 141.002 282.792 142.175 282.792C143.349 282.792 144.346 283.197 145.167 284.008C145.989 284.819 146.399 285.816 146.399 287C146.399 288.184 145.989 289.181 145.167 289.992ZM142.175 289.848C142.975 289.848 143.647 289.576 144.191 289.032C144.735 288.488 145.007 287.811 145.007 287C145.007 286.189 144.735 285.512 144.191 284.968C143.647 284.424 142.975 284.152 142.175 284.152C141.386 284.152 140.719 284.424 140.175 284.968C139.631 285.512 139.359 286.189 139.359 287C139.359 287.811 139.631 288.488 140.175 289.032C140.719 289.576 141.386 289.848 142.175 289.848ZM160.392 289.592H161.592V293.144H160.104V291H152.712V293.144H151.224V289.592H152.2C152.894 288.728 153.24 287.416 153.24 285.656V279.8H160.392V289.592ZM153.88 289.592H158.904V281.192H154.728V285.688C154.728 287.384 154.446 288.685 153.88 289.592ZM164.045 291.176C163.757 291.176 163.512 291.075 163.309 290.872C163.107 290.669 163.005 290.424 163.005 290.136C163.005 289.848 163.107 289.603 163.309 289.4C163.512 289.197 163.757 289.096 164.045 289.096C164.344 289.096 164.589 289.197 164.781 289.4C164.984 289.603 165.085 289.848 165.085 290.136C165.085 290.424 164.984 290.669 164.781 290.872C164.589 291.075 164.344 291.176 164.045 291.176Z" fill="#000429"/>
<line x1="214.5" y1="474.5" x2="214.5" y2="60.5" stroke="#E2EBF0" stroke-linecap="round" stroke-linejoin="round"/>
<line x1="269.5" y1="474.5" x2="269.5" y2="60.5" stroke="#E2EBF0" stroke-linecap="round" stroke-linejoin="round"/>
<line x1="324.5" y1="474.5" x2="324.5" y2="60.5" stroke="#E2EBF0" stroke-linecap="round" stroke-linejoin="round"/>
<line x1="379.5" y1="474.5" x2="379.5" y2="60.5" stroke="#E2EBF0" stroke-linecap="round" stroke-linejoin="round"/>
<line x1="434.5" y1="474.5" x2="434.5" y2="60.5" stroke="#E2EBF0" stroke-linecap="round" stroke-linejoin="round"/>
<line x1="489.5" y1="474.5" x2="489.5" y2="60.5" stroke="#E2EBF0" stroke-linecap="round" stroke-linejoin="round"/>
<rect x="195" y="80" width="315" height="24" rx="6" fill="#C7E0FF"/>
<rect x="195" y="119" width="256" height="24" rx="6" fill="#E1EAF6"/>
<rect x="195" y="158" width="162" height="24" rx="6" fill="#DAE0FA"/>
<rect x="195" y="197" width="216" height="24" rx="6" fill="#C7E0FF"/>
<rect x="195" y="236" width="162" height="24" rx="6" fill="#DAE0FA"/>
<rect x="195" y="275" width="287" height="24" rx="6" fill="#E1EAF6"/>
<path opacity="0.6" d="M122.512 330.512C121.392 331.643 120.021 332.208 118.4 332.208C116.779 332.208 115.408 331.643 114.288 330.512C113.168 329.381 112.608 328.011 112.608 326.4C112.608 324.779 113.168 323.408 114.288 322.288C115.408 321.157 116.779 320.592 118.4 320.592C120.021 320.592 121.392 321.157 122.512 322.288C123.643 323.408 124.208 324.779 124.208 326.4C124.208 328.011 123.643 329.381 122.512 330.512ZM115.312 329.504C116.144 330.336 117.173 330.752 118.4 330.752C119.627 330.752 120.651 330.336 121.472 329.504C122.304 328.661 122.72 327.627 122.72 326.4C122.72 325.163 122.304 324.128 121.472 323.296C120.651 322.453 119.627 322.032 118.4 322.032C117.173 322.032 116.144 322.453 115.312 323.296C114.491 324.128 114.08 325.163 114.08 326.4C114.08 327.627 114.491 328.661 115.312 329.504ZM132.212 324V332H130.82V325.344H127.668V328.608C127.668 329.92 127.402 330.837 126.868 331.36C126.346 331.872 125.604 332.085 124.644 332V330.688C125.188 330.763 125.594 330.645 125.86 330.336C126.138 330.016 126.276 329.429 126.276 328.576V324H132.212ZM135.298 328.64C135.436 329.355 135.762 329.909 136.274 330.304C136.796 330.699 137.436 330.896 138.194 330.896C139.25 330.896 140.018 330.507 140.498 329.728L141.682 330.4C140.903 331.605 139.73 332.208 138.162 332.208C136.892 332.208 135.858 331.813 135.058 331.024C134.268 330.224 133.874 329.216 133.874 328C133.874 326.795 134.263 325.792 135.042 324.992C135.82 324.192 136.828 323.792 138.066 323.792C139.239 323.792 140.194 324.208 140.93 325.04C141.676 325.861 142.05 326.853 142.05 328.016C142.05 328.219 142.034 328.427 142.002 328.64H135.298ZM138.066 325.104C137.319 325.104 136.7 325.317 136.21 325.744C135.719 326.16 135.415 326.72 135.298 327.424H140.642C140.524 326.667 140.226 326.091 139.746 325.696C139.266 325.301 138.706 325.104 138.066 325.104ZM148.898 324V325.344H145.042V332H143.65V324H148.898ZM158.471 325.2C159.441 325.2 160.263 325.531 160.935 326.192C161.607 326.843 161.943 327.643 161.943 328.592C161.943 329.563 161.607 330.373 160.935 331.024C160.273 331.675 159.452 332 158.471 332H154.263V320.8H160.983V322.208H155.751V325.2H158.471ZM158.471 330.608C159.025 330.608 159.495 330.416 159.879 330.032C160.273 329.648 160.471 329.168 160.471 328.592C160.471 328.027 160.273 327.552 159.879 327.168C159.495 326.784 159.025 326.592 158.471 326.592H155.751V330.608H158.471ZM164.045 332.176C163.757 332.176 163.512 332.075 163.309 331.872C163.107 331.669 163.005 331.424 163.005 331.136C163.005 330.848 163.107 330.603 163.309 330.4C163.512 330.197 163.757 330.096 164.045 330.096C164.344 330.096 164.589 330.197 164.781 330.4C164.984 330.603 165.085 330.848 165.085 331.136C165.085 331.424 164.984 331.669 164.781 331.872C164.589 332.075 164.344 332.176 164.045 332.176Z" fill="#000429"/>
<path opacity="0.6" d="M100.894 358.8H102.366V370H100.894V364.96H95.4536V370H93.9656V358.8H95.4536V363.552H100.894V358.8ZM111.243 362H112.635V370H111.243V368.624C110.549 369.68 109.541 370.208 108.219 370.208C107.099 370.208 106.144 369.803 105.355 368.992C104.565 368.171 104.171 367.173 104.171 366C104.171 364.827 104.565 363.835 105.355 363.024C106.144 362.203 107.099 361.792 108.219 361.792C109.541 361.792 110.549 362.32 111.243 363.376V362ZM108.395 368.864C109.205 368.864 109.883 368.592 110.427 368.048C110.971 367.493 111.243 366.811 111.243 366C111.243 365.189 110.971 364.512 110.427 363.968C109.883 363.413 109.205 363.136 108.395 363.136C107.595 363.136 106.923 363.413 106.379 363.968C105.835 364.512 105.562 365.189 105.562 366C105.562 366.811 105.835 367.493 106.379 368.048C106.923 368.592 107.595 368.864 108.395 368.864ZM120.696 362V363.344H117.976V370H116.584V363.344H113.848V362H120.696ZM128.227 362H129.619V370H128.227V368.624C127.534 369.68 126.526 370.208 125.203 370.208C124.083 370.208 123.128 369.803 122.339 368.992C121.55 368.171 121.155 367.173 121.155 366C121.155 364.827 121.55 363.835 122.339 363.024C123.128 362.203 124.083 361.792 125.203 361.792C126.526 361.792 127.534 362.32 128.227 363.376V362ZM125.379 368.864C126.19 368.864 126.867 368.592 127.411 368.048C127.955 367.493 128.227 366.811 128.227 366C128.227 365.189 127.955 364.512 127.411 363.968C126.867 363.413 126.19 363.136 125.379 363.136C124.579 363.136 123.907 363.413 123.363 363.968C122.819 364.512 122.547 365.189 122.547 366C122.547 366.811 122.819 367.493 123.363 368.048C123.907 368.592 124.579 368.864 125.379 368.864ZM138.4 362V370H137.008V363.344H133.856V366.608C133.856 367.92 133.589 368.837 133.056 369.36C132.533 369.872 131.792 370.085 130.832 370V368.688C131.376 368.763 131.781 368.645 132.048 368.336C132.325 368.016 132.464 367.429 132.464 366.576V362H138.4ZM141.213 360.544C140.946 360.544 140.722 360.453 140.541 360.272C140.36 360.091 140.269 359.872 140.269 359.616C140.269 359.36 140.36 359.141 140.541 358.96C140.722 358.768 140.946 358.672 141.213 358.672C141.469 358.672 141.688 358.768 141.869 358.96C142.05 359.141 142.141 359.36 142.141 359.616C142.141 359.872 142.05 360.091 141.869 360.272C141.688 360.453 141.469 360.544 141.213 360.544ZM140.509 370V362H141.901V370H140.509ZM150.009 362V370H148.633V367.12H147.465L145.225 370H143.529L145.865 367.04C145.267 366.891 144.782 366.592 144.409 366.144C144.035 365.696 143.849 365.173 143.849 364.576C143.849 363.84 144.11 363.227 144.633 362.736C145.155 362.245 145.811 362 146.601 362H150.009ZM146.649 365.872H148.633V363.296H146.649C146.254 363.296 145.918 363.413 145.641 363.648C145.363 363.883 145.225 364.197 145.225 364.592C145.225 364.976 145.363 365.285 145.641 365.52C145.918 365.755 146.254 365.872 146.649 365.872ZM163.431 358.8V360.208H160.119V370H158.647V360.208H155.351V358.8H163.431ZM164.045 370.176C163.757 370.176 163.512 370.075 163.309 369.872C163.107 369.669 163.005 369.424 163.005 369.136C163.005 368.848 163.107 368.603 163.309 368.4C163.512 368.197 163.757 368.096 164.045 368.096C164.344 368.096 164.589 368.197 164.781 368.4C164.984 368.603 165.085 368.848 165.085 369.136C165.085 369.424 164.984 369.669 164.781 369.872C164.589 370.075 164.344 370.176 164.045 370.176Z" fill="#000429"/>
<path opacity="0.6" d="M101.106 407.512C99.9858 408.643 98.6151 409.208 96.9938 409.208C95.3724 409.208 94.0018 408.643 92.8818 407.512C91.7618 406.381 91.2018 405.011 91.2018 403.4C91.2018 401.779 91.7618 400.408 92.8818 399.288C94.0018 398.157 95.3724 397.592 96.9938 397.592C98.6151 397.592 99.9858 398.157 101.106 399.288C102.236 400.408 102.802 401.779 102.802 403.4C102.802 405.011 102.236 406.381 101.106 407.512ZM93.9058 406.504C94.7378 407.336 95.7671 407.752 96.9938 407.752C98.2204 407.752 99.2444 407.336 100.066 406.504C100.898 405.661 101.314 404.627 101.314 403.4C101.314 402.163 100.898 401.128 100.066 400.296C99.2444 399.453 98.2204 399.032 96.9938 399.032C95.7671 399.032 94.7378 399.453 93.9058 400.296C93.0844 401.128 92.6738 402.163 92.6738 403.4C92.6738 404.627 93.0844 405.661 93.9058 406.504ZM111.215 409H109.487L105.839 405.208V409H104.447V401H105.839V404.536L109.295 401H111.087L107.263 404.872L111.215 409ZM115.535 409.208C114.329 409.208 113.327 408.808 112.527 408.008C111.727 407.197 111.327 406.195 111.327 405C111.327 403.805 111.727 402.808 112.527 402.008C113.327 401.197 114.329 400.792 115.535 400.792C116.324 400.792 117.033 400.984 117.663 401.368C118.292 401.741 118.761 402.248 119.071 402.888L117.903 403.56C117.7 403.133 117.385 402.792 116.959 402.536C116.543 402.28 116.068 402.152 115.535 402.152C114.735 402.152 114.063 402.424 113.519 402.968C112.985 403.512 112.719 404.189 112.719 405C112.719 405.8 112.985 406.472 113.519 407.016C114.063 407.56 114.735 407.832 115.535 407.832C116.068 407.832 116.548 407.709 116.975 407.464C117.401 407.208 117.727 406.867 117.951 406.44L119.135 407.128C118.793 407.757 118.303 408.264 117.663 408.648C117.023 409.021 116.313 409.208 115.535 409.208ZM127.024 401H128.416V409H127.024V407.624C126.33 408.68 125.322 409.208 124 409.208C122.88 409.208 121.925 408.803 121.136 407.992C120.346 407.171 119.952 406.173 119.952 405C119.952 403.827 120.346 402.835 121.136 402.024C121.925 401.203 122.88 400.792 124 400.792C125.322 400.792 126.33 401.32 127.024 402.376V401ZM124.176 407.864C124.986 407.864 125.664 407.592 126.208 407.048C126.752 406.493 127.024 405.811 127.024 405C127.024 404.189 126.752 403.512 126.208 402.968C125.664 402.413 124.986 402.136 124.176 402.136C123.376 402.136 122.704 402.413 122.16 402.968C121.616 403.512 121.344 404.189 121.344 405C121.344 405.811 121.616 406.493 122.16 407.048C122.704 407.592 123.376 407.864 124.176 407.864ZM136.061 401H137.453V409H136.061V405.656H131.917V409H130.525V401H131.917V404.328H136.061V401ZM146.196 401H147.588V409H146.196V407.624C145.502 408.68 144.494 409.208 143.172 409.208C142.052 409.208 141.097 408.803 140.308 407.992C139.518 407.171 139.124 406.173 139.124 405C139.124 403.827 139.518 402.835 140.308 402.024C141.097 401.203 142.052 400.792 143.172 400.792C144.494 400.792 145.502 401.32 146.196 402.376V401ZM143.348 407.864C144.158 407.864 144.836 407.592 145.38 407.048C145.924 406.493 146.196 405.811 146.196 405C146.196 404.189 145.924 403.512 145.38 402.968C144.836 402.413 144.158 402.136 143.348 402.136C142.548 402.136 141.876 402.413 141.332 402.968C140.788 403.512 140.516 404.189 140.516 405C140.516 405.811 140.788 406.493 141.332 407.048C141.876 407.592 142.548 407.864 143.348 407.864ZM161.985 409H160.161L155.329 403.624V409H153.841V397.8H155.329V402.856L160.001 397.8H161.825L156.881 403.24L161.985 409ZM164.045 409.176C163.757 409.176 163.512 409.075 163.309 408.872C163.107 408.669 163.005 408.424 163.005 408.136C163.005 407.848 163.107 407.603 163.309 407.4C163.512 407.197 163.757 407.096 164.045 407.096C164.344 407.096 164.589 407.197 164.781 407.4C164.984 407.603 165.085 407.848 165.085 408.136C165.085 408.424 164.984 408.669 164.781 408.872C164.589 409.075 164.344 409.176 164.045 409.176Z" fill="#000429"/>
<path opacity="0.6" d="M122.512 446.512C121.392 447.643 120.021 448.208 118.4 448.208C116.779 448.208 115.408 447.643 114.288 446.512C113.168 445.381 112.608 444.011 112.608 442.4C112.608 440.779 113.168 439.408 114.288 438.288C115.408 437.157 116.779 436.592 118.4 436.592C120.021 436.592 121.392 437.157 122.512 438.288C123.643 439.408 124.208 440.779 124.208 442.4C124.208 444.011 123.643 445.381 122.512 446.512ZM115.312 445.504C116.144 446.336 117.173 446.752 118.4 446.752C119.627 446.752 120.651 446.336 121.472 445.504C122.304 444.661 122.72 443.627 122.72 442.4C122.72 441.163 122.304 440.128 121.472 439.296C120.651 438.453 119.627 438.032 118.4 438.032C117.173 438.032 116.144 438.453 115.312 439.296C114.491 440.128 114.08 441.163 114.08 442.4C114.08 443.627 114.491 444.661 115.312 445.504ZM132.212 440V448H130.82V441.344H127.668V444.608C127.668 445.92 127.402 446.837 126.868 447.36C126.346 447.872 125.604 448.085 124.644 448V446.688C125.188 446.763 125.594 446.645 125.86 446.336C126.138 446.016 126.276 445.429 126.276 444.576V440H132.212ZM135.298 444.64C135.436 445.355 135.762 445.909 136.274 446.304C136.796 446.699 137.436 446.896 138.194 446.896C139.25 446.896 140.018 446.507 140.498 445.728L141.682 446.4C140.903 447.605 139.73 448.208 138.162 448.208C136.892 448.208 135.858 447.813 135.058 447.024C134.268 446.224 133.874 445.216 133.874 444C133.874 442.795 134.263 441.792 135.042 440.992C135.82 440.192 136.828 439.792 138.066 439.792C139.239 439.792 140.194 440.208 140.93 441.04C141.676 441.861 142.05 442.853 142.05 444.016C142.05 444.219 142.034 444.427 142.002 444.64H135.298ZM138.066 441.104C137.319 441.104 136.7 441.317 136.21 441.744C135.719 442.16 135.415 442.72 135.298 443.424H140.642C140.524 442.667 140.226 442.091 139.746 441.696C139.266 441.301 138.706 441.104 138.066 441.104ZM148.898 440V441.344H145.042V448H143.65V440H148.898ZM158.471 441.2C159.441 441.2 160.263 441.531 160.935 442.192C161.607 442.843 161.943 443.643 161.943 444.592C161.943 445.563 161.607 446.373 160.935 447.024C160.273 447.675 159.452 448 158.471 448H154.263V436.8H160.983V438.208H155.751V441.2H158.471ZM158.471 446.608C159.025 446.608 159.495 446.416 159.879 446.032C160.273 445.648 160.471 445.168 160.471 444.592C160.471 444.027 160.273 443.552 159.879 443.168C159.495 442.784 159.025 442.592 158.471 442.592H155.751V446.608H158.471ZM164.045 448.176C163.757 448.176 163.512 448.075 163.309 447.872C163.107 447.669 163.005 447.424 163.005 447.136C163.005 446.848 163.107 446.603 163.309 446.4C163.512 446.197 163.757 446.096 164.045 446.096C164.344 446.096 164.589 446.197 164.781 446.4C164.984 446.603 165.085 446.848 165.085 447.136C165.085 447.424 164.984 447.669 164.781 447.872C164.589 448.075 164.344 448.176 164.045 448.176Z" fill="#000429"/>
<path opacity="0.6" d="M98.2084 487V485.656C98.9444 485.763 99.4937 485.56 99.8564 485.048C100.23 484.525 100.416 483.56 100.416 482.152V475.8H107.808V487H106.32V477.208H101.904V482.152C101.904 483.155 101.808 483.997 101.616 484.68C101.435 485.352 101.168 485.859 100.816 486.2C100.475 486.541 100.091 486.776 99.6644 486.904C99.2484 487.021 98.763 487.053 98.2084 487ZM117.064 478.792C118.237 478.792 119.229 479.197 120.04 480.008C120.861 480.819 121.272 481.816 121.272 483C121.272 484.184 120.861 485.181 120.04 485.992C119.229 486.803 118.237 487.208 117.064 487.208C116.008 487.208 115.096 486.872 114.328 486.2C113.56 485.528 113.101 484.68 112.952 483.656H111.464V487H110.072V479H111.464V482.328H112.952C113.101 481.304 113.56 480.461 114.328 479.8C115.106 479.128 116.018 478.792 117.064 478.792ZM117.064 485.848C117.853 485.848 118.52 485.576 119.064 485.032C119.608 484.488 119.88 483.811 119.88 483C119.88 482.189 119.608 481.512 119.064 480.968C118.52 480.424 117.853 480.152 117.064 480.152C116.264 480.152 115.592 480.424 115.048 480.968C114.504 481.512 114.232 482.189 114.232 483C114.232 483.811 114.504 484.488 115.048 485.032C115.592 485.576 116.264 485.848 117.064 485.848ZM126.563 487.208C125.379 487.208 124.403 486.819 123.635 486.04C122.867 485.261 122.483 484.259 122.483 483.032C122.483 481.667 122.68 480.616 123.075 479.88C123.48 479.144 124.302 478.477 125.539 477.88C125.763 477.773 126.067 477.635 126.451 477.464C126.846 477.293 127.134 477.165 127.315 477.08C127.496 476.984 127.699 476.861 127.923 476.712C128.147 476.552 128.312 476.381 128.419 476.2C128.536 476.008 128.622 475.789 128.675 475.544L129.795 476.184C129.763 476.355 129.72 476.515 129.667 476.664C129.614 476.803 129.534 476.941 129.427 477.08C129.331 477.208 129.246 477.32 129.171 477.416C129.096 477.512 128.968 477.619 128.787 477.736C128.616 477.843 128.488 477.923 128.403 477.976C128.328 478.029 128.174 478.109 127.939 478.216C127.715 478.323 127.56 478.397 127.475 478.44C127.4 478.472 127.224 478.547 126.947 478.664C126.67 478.771 126.499 478.84 126.435 478.872C125.71 479.181 125.176 479.496 124.835 479.816C124.504 480.136 124.264 480.541 124.115 481.032C124.456 480.605 124.883 480.291 125.395 480.088C125.907 479.885 126.419 479.784 126.931 479.784C127.934 479.784 128.782 480.125 129.475 480.808C130.179 481.491 130.531 482.371 130.531 483.448C130.531 484.536 130.158 485.437 129.411 486.152C128.664 486.856 127.715 487.208 126.563 487.208ZM124.691 485.16C125.192 485.629 125.816 485.864 126.563 485.864C127.31 485.864 127.923 485.635 128.403 485.176C128.894 484.717 129.139 484.141 129.139 483.448C129.139 482.733 128.904 482.152 128.435 481.704C127.976 481.245 127.368 481.016 126.611 481.016C125.928 481.016 125.31 481.235 124.755 481.672C124.211 482.099 123.939 482.664 123.939 483.368C123.939 484.093 124.19 484.691 124.691 485.16ZM138.761 485.992C137.94 486.803 136.942 487.208 135.769 487.208C134.596 487.208 133.598 486.803 132.777 485.992C131.966 485.181 131.561 484.184 131.561 483C131.561 481.816 131.966 480.819 132.777 480.008C133.598 479.197 134.596 478.792 135.769 478.792C136.942 478.792 137.94 479.197 138.761 480.008C139.582 480.819 139.993 481.816 139.993 483C139.993 484.184 139.582 485.181 138.761 485.992ZM135.769 485.848C136.569 485.848 137.241 485.576 137.785 485.032C138.329 484.488 138.601 483.811 138.601 483C138.601 482.189 138.329 481.512 137.785 480.968C137.241 480.424 136.569 480.152 135.769 480.152C134.98 480.152 134.313 480.424 133.769 480.968C133.225 481.512 132.953 482.189 132.953 483C132.953 483.811 133.225 484.488 133.769 485.032C134.313 485.576 134.98 485.848 135.769 485.848ZM146.962 482.888C147.783 483.229 148.194 483.848 148.194 484.744C148.194 485.405 147.97 485.949 147.522 486.376C147.085 486.792 146.455 487 145.634 487H141.634V479H145.314C146.114 479 146.733 479.203 147.17 479.608C147.607 480.003 147.826 480.525 147.826 481.176C147.826 481.944 147.538 482.515 146.962 482.888ZM145.25 480.248H142.994V482.344H145.25C146.061 482.344 146.466 481.987 146.466 481.272C146.466 480.589 146.061 480.248 145.25 480.248ZM145.554 485.736C145.959 485.736 146.269 485.64 146.482 485.448C146.706 485.256 146.818 484.984 146.818 484.632C146.818 484.301 146.706 484.045 146.482 483.864C146.269 483.672 145.959 483.576 145.554 483.576H142.994V485.736H145.554ZM161.985 487H160.161L155.329 481.624V487H153.841V475.8H155.329V480.856L160.001 475.8H161.825L156.881 481.24L161.985 487ZM164.045 487.176C163.757 487.176 163.512 487.075 163.309 486.872C163.107 486.669 163.005 486.424 163.005 486.136C163.005 485.848 163.107 485.603 163.309 485.4C163.512 485.197 163.757 485.096 164.045 485.096C164.344 485.096 164.589 485.197 164.781 485.4C164.984 485.603 165.085 485.848 165.085 486.136C165.085 486.424 164.984 486.669 164.781 486.872C164.589 487.075 164.344 487.176 164.045 487.176Z" fill="#000429"/>
<path opacity="0.6" d="M99.1736 523.592H100.374V527.144H98.8856V525H91.4936V527.144H90.0056V523.592H90.9816C91.675 522.728 92.0216 521.416 92.0216 519.656V513.8H99.1736V523.592ZM92.6616 523.592H97.6856V515.192H93.5096V519.688C93.5096 521.384 93.227 522.685 92.6616 523.592ZM109.947 517V525H108.587V519.192L106.043 523.288H105.867L103.323 519.192V525H101.947V517H103.435L105.947 521.048L108.459 517H109.947ZM117.88 517H119V525H117.624V519.384L113.192 525H112.072V517H113.448V522.616L117.88 517ZM127.071 517V518.344H124.351V525H122.959V518.344H120.223V517H127.071ZM132.706 516.792C133.826 516.792 134.781 517.203 135.57 518.024C136.36 518.835 136.754 519.827 136.754 521C136.754 522.173 136.36 523.171 135.57 523.992C134.781 524.803 133.826 525.208 132.706 525.208C131.384 525.208 130.376 524.68 129.682 523.624V528.2H128.29V517H129.682V518.376C130.376 517.32 131.384 516.792 132.706 516.792ZM132.53 523.864C133.33 523.864 134.002 523.592 134.546 523.048C135.09 522.493 135.362 521.811 135.362 521C135.362 520.189 135.09 519.512 134.546 518.968C134.002 518.413 133.33 518.136 132.53 518.136C131.72 518.136 131.042 518.413 130.498 518.968C129.954 519.512 129.682 520.189 129.682 521C129.682 521.811 129.954 522.493 130.498 523.048C131.042 523.592 131.72 523.864 132.53 523.864ZM145.167 523.992C144.346 524.803 143.349 525.208 142.175 525.208C141.002 525.208 140.005 524.803 139.183 523.992C138.373 523.181 137.967 522.184 137.967 521C137.967 519.816 138.373 518.819 139.183 518.008C140.005 517.197 141.002 516.792 142.175 516.792C143.349 516.792 144.346 517.197 145.167 518.008C145.989 518.819 146.399 519.816 146.399 521C146.399 522.184 145.989 523.181 145.167 523.992ZM142.175 523.848C142.975 523.848 143.647 523.576 144.191 523.032C144.735 522.488 145.007 521.811 145.007 521C145.007 520.189 144.735 519.512 144.191 518.968C143.647 518.424 142.975 518.152 142.175 518.152C141.386 518.152 140.719 518.424 140.175 518.968C139.631 519.512 139.359 520.189 139.359 521C139.359 521.811 139.631 522.488 140.175 523.032C140.719 523.576 141.386 523.848 142.175 523.848ZM160.392 523.592H161.592V527.144H160.104V525H152.712V527.144H151.224V523.592H152.2C152.894 522.728 153.24 521.416 153.24 519.656V513.8H160.392V523.592ZM153.88 523.592H158.904V515.192H154.728V519.688C154.728 521.384 154.446 522.685 153.88 523.592ZM164.045 525.176C163.757 525.176 163.512 525.075 163.309 524.872C163.107 524.669 163.005 524.424 163.005 524.136C163.005 523.848 163.107 523.603 163.309 523.4C163.512 523.197 163.757 523.096 164.045 523.096C164.344 523.096 164.589 523.197 164.781 523.4C164.984 523.603 165.085 523.848 165.085 524.136C165.085 524.424 164.984 524.669 164.781 524.872C164.589 525.075 164.344 525.176 164.045 525.176Z" fill="#000429"/>
<rect x="195" y="314" width="205" height="24" rx="6" fill="#C7E0FF"/>
<rect x="195" y="353" width="265" height="24" rx="6" fill="#E1EAF6"/>
<rect x="195" y="392" width="205" height="24" rx="6" fill="#C7E0FF"/>
<rect x="195" y="431" width="250" height="24" rx="6" fill="#DAE0FA"/>
<defs>
<filter id="filter0_d" x="0" y="0" width="600" height="555" filterUnits="userSpaceOnUse" color-interpolation-filters="sRGB">
<feFlood flood-opacity="0" result="BackgroundImageFix"/>
<feColorMatrix in="SourceAlpha" type="matrix" values="0 0 0 0 0 0 0 0 0 0 0 0 0 0 0 0 0 0 127 0"/>
<feOffset dy="10"/>
<feGaussianBlur stdDeviation="15"/>
<feColorMatrix type="matrix" values="0 0 0 0 0 0 0 0 0 0.0156863 0 0 0 0 0.164706 0 0 0 0.1 0"/>
<feBlend mode="normal" in2="BackgroundImageFix" result="effect1_dropShadow"/>
<feBlend mode="normal" in="SourceGraphic" in2="effect1_dropShadow" result="shape"/>
</filter>
</defs>
</svg>
