<svg width="660" height="388" viewBox="0 0 660 388" fill="none" xmlns="http://www.w3.org/2000/svg">
<g filter="url(#filter0_d)">
<path d="M30 44C30 30.7452 40.7452 20 54 20H606C619.255 20 630 30.7452 630 44V324C630 337.255 619.255 348 606 348H54C40.7452 348 30 337.255 30 324V44Z" fill="white"/>
</g>
<g opacity="0.07">
<line x1="89.5" y1="313.5" x2="89.5" y2="54.5" stroke="#00042A" stroke-linecap="round" stroke-linejoin="round"/>
<line x1="122.5" y1="313.5" x2="122.5" y2="54.5" stroke="#00042A" stroke-linecap="round" stroke-linejoin="round"/>
<line x1="229.5" y1="313.5" x2="229.5" y2="54.5" stroke="#00042A" stroke-linecap="round" stroke-linejoin="round"/>
<line x1="439.9" y1="313.5" x2="439.9" y2="54.5" stroke="#00042A" stroke-linecap="round" stroke-linejoin="round"/>
<line x1="499.7" y1="313.5" x2="499.7" y2="54.5" stroke="#00042A" stroke-linecap="round" stroke-linejoin="round"/>
<line x1="569.5" y1="313.5" x2="569.5" y2="54.5" stroke="#00042A" stroke-linecap="round" stroke-linejoin="round"/>
</g>
<rect x="133" y="74" width="63" height="12" rx="6" fill="#4765EE"/>
<rect x="133" y="104" width="86" height="12" rx="6" fill="#62BCF9"/>
<rect x="133" y="134" width="63" height="12" rx="6" fill="#4765EE"/>
<rect x="133" y="164" width="86" height="12" rx="6" fill="#4765EE"/>
<rect x="133" y="194" width="41" height="12" rx="6" fill="#62BCF9"/>
<rect x="133" y="224" width="41" height="12" rx="6" fill="#4D95F0"/>
<rect x="133" y="254" width="74" height="12" rx="6" fill="#4765EE"/>
<rect x="133" y="284" width="53" height="12" rx="6" fill="#4D95F0"/>
<rect x="450" y="74" width="29" height="12" rx="6" fill="#4765EE"/>
<rect x="450" y="104" width="40" height="12" rx="6" fill="#62BCF9"/>
<rect x="450" y="134" width="29" height="12" rx="6" fill="#4765EE"/>
<rect x="450" y="164" width="40" height="12" rx="6" fill="#4765EE"/>
<rect x="450" y="194" width="19" height="12" rx="6" fill="#62BCF9"/>
<rect x="450" y="224" width="19" height="12" rx="6" fill="#4D95F0"/>
<rect x="450" y="254" width="34" height="12" rx="6" fill="#4765EE"/>
<rect x="450" y="284" width="25" height="12" rx="6" fill="#4D95F0"/>
<rect x="510" y="74" width="36" height="12" rx="6" fill="#4765EE"/>
<rect x="510" y="104" width="23" height="12" rx="6" fill="#62BCF9"/>
<rect x="510" y="134" width="36" height="12" rx="6" fill="#4765EE"/>
<rect x="510" y="164" width="26" height="12" rx="6" fill="#4765EE"/>
<rect x="510" y="194" width="42" height="12" rx="6" fill="#62BCF9"/>
<rect x="510" y="224" width="23" height="12" rx="6" fill="#4D95F0"/>
<rect x="510" y="254" width="31" height="12" rx="6" fill="#4765EE"/>
<rect x="510" y="284" width="31" height="12" rx="6" fill="#4D95F0"/>
<rect x="100" y="74" width="12" height="12" rx="6" fill="#4765EE"/>
<rect x="100" y="104" width="12" height="12" rx="6" fill="#62BCF9"/>
<rect x="100" y="134" width="12" height="12" rx="6" fill="#4765EE"/>
<rect x="100" y="164" width="12" height="12" rx="6" fill="#4765EE"/>
<rect x="100" y="194" width="12" height="12" rx="6" fill="#62BCF9"/>
<rect x="100" y="224" width="12" height="12" rx="6" fill="#4D95F0"/>
<rect x="100" y="254" width="12" height="12" rx="6" fill="#4765EE"/>
<rect x="100" y="284" width="12" height="12" rx="6" fill="#4D95F0"/>
<rect x="240" y="74" width="189" height="12" rx="6" fill="#4765EE"/>
<rect x="240" y="104" width="165" height="12" rx="6" fill="#62BCF9"/>
<rect x="240" y="134" width="145" height="12" rx="6" fill="#4765EE"/>
<rect x="240" y="164" width="177" height="12" rx="6" fill="#4765EE"/>
<rect x="240" y="194" width="101" height="12" rx="6" fill="#62BCF9"/>
<rect x="240" y="224" width="189" height="12" rx="6" fill="#4D95F0"/>
<rect x="240" y="254" width="177" height="12" rx="6" fill="#4765EE"/>
<rect x="240" y="284" width="156" height="12" rx="6" fill="#4D95F0"/>
<defs>
<filter id="filter0_d" x="0" y="0" width="660" height="388" filterUnits="userSpaceOnUse" color-interpolation-filters="sRGB">
<feFlood flood-opacity="0" result="BackgroundImageFix"/>
<feColorMatrix in="SourceAlpha" type="matrix" values="0 0 0 0 0 0 0 0 0 0 0 0 0 0 0 0 0 0 127 0"/>
<feOffset dy="10"/>
<feGaussianBlur stdDeviation="15"/>
<feColorMatrix type="matrix" values="0 0 0 0 0 0 0 0 0 0.0156863 0 0 0 0 0.164706 0 0 0 0.1 0"/>
<feBlend mode="normal" in2="BackgroundImageFix" result="effect1_dropShadow"/>
<feBlend mode="normal" in="SourceGraphic" in2="effect1_dropShadow" result="shape"/>
</filter>
</defs>
</svg>
