<svg width="160" height="160" viewBox="0 0 160 160" fill="none" xmlns="http://www.w3.org/2000/svg">
<g filter="url(#filter0_d)">
<circle cx="80" cy="70" r="50" fill="white"/>
</g>
<path fill-rule="evenodd" clip-rule="evenodd" d="M79.9991 71.9512C76.1884 71.9512 56.5552 56.1288 56.5552 56.1288V54.3902C56.5552 52.2361 58.3035 50.4878 60.4615 50.4878H99.5366C101.697 50.4878 103.445 52.2361 103.445 54.3902L103.414 56.3415C103.414 56.3415 83.9932 71.9512 79.9991 71.9512ZM79.9991 77.3171C84.1766 77.3171 103.414 62.1951 103.414 62.1951L103.445 85.6097C103.445 87.7639 101.697 89.5122 99.5366 89.5122H60.4615C58.3054 89.5122 56.5552 87.7639 56.5552 85.6097L56.5864 62.1951C56.5864 62.1951 76.1884 77.3171 79.9991 77.3171Z" fill="#65CA7B"/>
<defs>
<filter id="filter0_d" x="0" y="0" width="160" height="160" filterUnits="userSpaceOnUse" color-interpolation-filters="sRGB">
<feFlood flood-opacity="0" result="BackgroundImageFix"/>
<feColorMatrix in="SourceAlpha" type="matrix" values="0 0 0 0 0 0 0 0 0 0 0 0 0 0 0 0 0 0 127 0"/>
<feOffset dy="10"/>
<feGaussianBlur stdDeviation="15"/>
<feColorMatrix type="matrix" values="0 0 0 0 0 0 0 0 0 0.0156863 0 0 0 0 0.164706 0 0 0 0.1 0"/>
<feBlend mode="normal" in2="BackgroundImageFix" result="effect1_dropShadow"/>
<feBlend mode="normal" in="SourceGraphic" in2="effect1_dropShadow" result="shape"/>
</filter>
</defs>
</svg>
