<svg width="80" height="80" viewBox="0 0 80 80" fill="none" xmlns="http://www.w3.org/2000/svg">
<path d="M36.1136 9.66878C36.1136 8.56428 35.2168 7.66311 34.1139 7.72321C15.0976 8.75948 -0.00154414 24.5071 1.18443e-07 43.7826C-0.0015979 63.729 16.1672 79.8978 36.1136 79.8962C55.3891 79.8977 71.1368 64.7985 72.173 45.7822C72.2331 44.6794 71.332 43.7825 70.2275 43.7825L38.1135 43.7811C37.009 43.781 36.1136 42.8856 36.1136 41.7811V9.66878Z" fill="url(#paint0_linear)"/>
<path d="M45.8858 0.215232C44.783 0.155228 43.8862 1.05637 43.8862 2.16081V34.2764C43.8862 35.3809 44.7817 36.2764 45.8862 36.2764H78C79.1045 36.2764 80.0057 35.3795 79.9456 34.2766C78.9456 15.9207 64.2416 1.21398 45.8858 0.215232Z" fill="#A6DBFF"/>
<defs>
<linearGradient id="paint0_linear" x1="36.1136" y1="7.66895" x2="36.1136" y2="79.8962" gradientUnits="userSpaceOnUse">
<stop stop-color="#4D95F0"/>
<stop offset="1" stop-color="#62BCF9"/>
</linearGradient>
</defs>
</svg>
