<svg width="97" height="77" viewBox="0 0 97 77" fill="none" xmlns="http://www.w3.org/2000/svg">
<g style="mix-blend-mode:luminosity" opacity="0.4">
<path d="M60.4211 3.51144L54.1518 47.8984C54.0634 48.5297 53.7493 49.1076 53.2676 49.5252C52.7859 49.9427 52.1693 50.1717 51.5318 50.1696H33.2003C32.8278 50.16 32.4614 50.0719 32.1254 49.9109C31.7893 49.7499 31.491 49.5197 31.2501 49.2354C31.0091 48.9511 30.831 48.6191 30.7273 48.2611C30.6236 47.9032 30.5967 47.5274 30.6483 47.1583L36.8666 2.77988C36.9548 2.14776 37.2686 1.56885 37.7501 1.14989C38.2316 0.730929 38.8483 0.500162 39.4866 0.500135H57.7841C58.1643 0.496283 58.5408 0.574682 58.8878 0.729958C59.2348 0.885234 59.5442 1.11371 59.7947 1.39974C60.0451 1.68576 60.2308 2.02256 60.3389 2.38705C60.4471 2.75154 60.4751 3.1351 60.4211 3.51144Z" fill="#62BCF9"/>
<path d="M2.80704 27.61L0.0254092 47.158C-0.0268972 47.5327 0.00176215 47.9142 0.109454 48.2769C0.217145 48.6395 0.401364 48.9749 0.649683 49.2603C0.898001 49.5457 1.20464 49.7745 1.54892 49.9313C1.8932 50.0881 2.2671 50.1693 2.64541 50.1693H20.9684C21.6054 50.1696 22.2211 49.94 22.7024 49.5227C23.1837 49.1055 23.4983 48.5286 23.5884 47.8981L26.3445 28.3331C26.3969 27.9584 26.3682 27.5769 26.2605 27.2142C26.1528 26.8516 25.9686 26.5162 25.7203 26.2308C25.472 25.9454 25.1653 25.7166 24.821 25.5598C24.4768 25.403 24.1029 25.3218 23.7245 25.3218H5.42704C4.78701 25.3203 4.16829 25.5516 3.68623 25.9726C3.20417 26.3937 2.89169 26.9756 2.80704 27.61Z" fill="#62BCF9"/>
<path d="M36.6032 73.2143L42.8725 28.8274C42.9607 28.1975 43.2736 27.6208 43.7535 27.2034C44.2334 26.786 44.848 26.5562 45.484 26.5562H63.824C64.197 26.5644 64.564 26.6517 64.9007 26.8123C65.2375 26.9728 65.5363 27.203 65.7775 27.4876C66.0187 27.7722 66.1968 28.1048 66.2999 28.4633C66.4031 28.8218 66.429 29.1982 66.376 29.5675L60.1577 73.9459C60.0657 74.5749 59.7503 75.1498 59.2692 75.5653C58.7881 75.9808 58.1734 76.2092 57.5377 76.2086H39.2402C38.8617 76.2121 38.4868 76.1341 38.1412 75.9798C37.7955 75.8255 37.4871 75.5987 37.2369 75.3146C36.9867 75.0305 36.8006 74.6959 36.6913 74.3335C36.5819 73.9711 36.5519 73.5894 36.6032 73.2143Z" fill="#4765EE"/>
<path d="M94.2184 49.1148L96.9745 29.5499C97.0269 29.1752 96.9982 28.7937 96.8905 28.431C96.7828 28.0684 96.5986 27.733 96.3503 27.4476C96.102 27.1622 95.7953 26.9334 95.451 26.7766C95.1068 26.6197 94.7328 26.5386 94.3545 26.5386H76.057C75.4175 26.5389 74.7998 26.7708 74.3181 27.1915C73.8364 27.6122 73.5234 28.1932 73.437 28.8268L70.6809 48.3918C70.6286 48.7665 70.6573 49.148 70.765 49.5107C70.8727 49.8733 71.0569 50.2087 71.3052 50.4941C71.5535 50.7795 71.8602 51.0083 72.2044 51.1651C72.5487 51.3219 72.9226 51.4031 73.3009 51.4031H91.5984C92.2385 51.4046 92.8572 51.1733 93.3392 50.7522C93.8213 50.3312 94.1338 49.7493 94.2184 49.1148Z" fill="#4765EE"/>
<path d="M54.1532 47.899L57.1645 26.5562H45.4851C44.8491 26.5562 44.2345 26.786 43.7546 27.2034C43.2747 27.6208 42.9618 28.1975 42.8736 28.8274L39.8623 50.1702H51.5332C52.1707 50.1723 52.7873 49.9433 53.269 49.5258C53.7507 49.1082 54.0648 48.5303 54.1532 47.899Z" fill="#4340DD"/>
</g>
</svg>
