<svg width="93" height="32" viewBox="0 0 93 32" fill="none" xmlns="http://www.w3.org/2000/svg">
<path d="M25.0787 1.24994L22.4765 19.6734C22.4398 19.9355 22.3094 20.1753 22.1095 20.3486C21.9096 20.522 21.6536 20.617 21.389 20.6161H13.7803C13.6256 20.6122 13.4736 20.5756 13.3341 20.5087C13.1946 20.4419 13.0708 20.3464 12.9708 20.2284C12.8708 20.1104 12.7969 19.9726 12.7538 19.824C12.7108 19.6754 12.6996 19.5194 12.721 19.3662L15.302 0.946298C15.3387 0.683927 15.4689 0.443643 15.6688 0.269747C15.8686 0.0958506 16.1246 6.72453e-05 16.3895 5.61829e-05H23.9842C24.142 -0.0015426 24.2982 0.0309981 24.4423 0.0954476C24.5863 0.159897 24.7147 0.254731 24.8187 0.373449C24.9226 0.492167 24.9997 0.631961 25.0446 0.783248C25.0895 0.934536 25.1011 1.09374 25.0787 1.24994Z" fill="#62BCF9"/>
<path d="M1.1651 11.2526L0.0105465 19.3663C-0.0111641 19.5218 0.000731406 19.6802 0.0454305 19.8307C0.0901295 19.9812 0.166592 20.1204 0.269661 20.2389C0.372729 20.3574 0.500005 20.4523 0.642903 20.5174C0.785801 20.5825 0.940996 20.6162 1.09802 20.6162H8.70327C8.96765 20.6163 9.2232 20.521 9.42298 20.3478C9.62275 20.1747 9.75333 19.9352 9.79074 19.6735L10.9347 11.5527C10.9564 11.3972 10.9445 11.2389 10.8998 11.0883C10.8551 10.9378 10.7787 10.7986 10.6756 10.6802C10.5725 10.5617 10.4452 10.4667 10.3023 10.4016C10.1594 10.3365 10.0043 10.3029 9.84723 10.3029H2.25258C1.98692 10.3022 1.73011 10.3983 1.53003 10.573C1.32994 10.7478 1.20024 10.9893 1.1651 11.2526Z" fill="#62BCF9"/>
<path d="M15.1927 30.1809L17.7949 11.7575C17.8315 11.496 17.9614 11.2566 18.1606 11.0834C18.3597 10.9102 18.6148 10.8148 18.8788 10.8148H26.4911C26.6459 10.8182 26.7983 10.8544 26.938 10.9211C27.0778 10.9877 27.2018 11.0833 27.302 11.2014C27.4021 11.3195 27.476 11.4575 27.5188 11.6064C27.5616 11.7552 27.5724 11.9114 27.5504 12.0646L24.9694 30.4846C24.9312 30.7457 24.8003 30.9843 24.6006 31.1567C24.4009 31.3292 24.1458 31.424 23.8819 31.4238H16.2872C16.1301 31.4252 15.9746 31.3928 15.8311 31.3288C15.6876 31.2648 15.5596 31.1706 15.4557 31.0527C15.3519 30.9348 15.2747 30.7959 15.2293 30.6455C15.1839 30.495 15.1714 30.3366 15.1927 30.1809Z" fill="#4765EE"/>
<path d="M39.1068 20.1784L40.2508 12.0576C40.2725 11.9021 40.2606 11.7437 40.2159 11.5932C40.1712 11.4427 40.0947 11.3035 39.9917 11.185C39.8886 11.0666 39.7613 10.9716 39.6184 10.9065C39.4755 10.8414 39.3203 10.8077 39.1633 10.8077H31.5686C31.3032 10.8079 31.0468 10.9041 30.8469 11.0788C30.6469 11.2534 30.517 11.4945 30.4812 11.7575L29.3372 19.8782C29.3155 20.0338 29.3274 20.1921 29.3721 20.3427C29.4168 20.4932 29.4933 20.6324 29.5963 20.7508C29.6994 20.8693 29.8267 20.9643 29.9696 21.0294C30.1125 21.0944 30.2677 21.1281 30.4247 21.1281H38.0193C38.285 21.1288 38.5418 21.0327 38.7419 20.858C38.942 20.6832 39.0717 20.4417 39.1068 20.1784Z" fill="#4765EE"/>
<path d="M22.4771 19.6734L23.727 10.8148H18.8792C18.6153 10.8148 18.3602 10.9102 18.161 11.0834C17.9618 11.2566 17.8319 11.496 17.7953 11.7575L16.5454 20.6161H21.3896C21.6542 20.617 21.9101 20.522 22.1101 20.3486C22.31 20.1753 22.4404 19.9355 22.4771 19.6734Z" fill="#4340DD"/>
<path opacity="0.8" d="M66.2368 16.6041C66.2368 18.2841 65.6848 19.7361 64.5808 20.9601L65.9128 22.3281L64.4548 23.6421L63.0688 22.2201C62.0128 22.8321 60.8908 23.1381 59.7028 23.1381C57.8908 23.1381 56.3488 22.5081 55.0768 21.2481C53.8048 19.9761 53.1688 18.4281 53.1688 16.6041C53.1688 14.7801 53.8048 13.2381 55.0768 11.9781C56.3488 10.7061 57.8908 10.0701 59.7028 10.0701C61.5148 10.0701 63.0568 10.7061 64.3288 11.9781C65.6008 13.2381 66.2368 14.7801 66.2368 16.6041ZM59.7028 21.1221C60.3748 21.1221 61.0048 20.9841 61.5928 20.7081L59.2888 18.3501L60.7468 17.0361L63.1588 19.5021C63.8308 18.6741 64.1668 17.7081 64.1668 16.6041C64.1668 15.3201 63.7348 14.2461 62.8708 13.3821C62.0068 12.5181 60.9508 12.0861 59.7028 12.0861C58.4548 12.0861 57.3988 12.5181 56.5348 13.3821C55.6708 14.2461 55.2388 15.3201 55.2388 16.6041C55.2388 17.8881 55.6708 18.9621 56.5348 19.8261C57.3988 20.6901 58.4548 21.1221 59.7028 21.1221ZM80.2729 10.3041V22.9041H78.2029V13.9221L74.3689 20.2581H74.1169L70.2829 13.9041V22.9041H68.2129V10.3041H70.4449L74.2429 16.6041L78.0589 10.3041H80.2729ZM86.8034 23.1381C85.5914 23.1381 84.5594 22.8621 83.7074 22.3101C82.8674 21.7581 82.2794 21.0021 81.9434 20.0421L83.7254 18.9981C84.2294 20.4141 85.2734 21.1221 86.8574 21.1221C87.6374 21.1221 88.2194 20.9721 88.6034 20.6721C88.9994 20.3601 89.1974 19.9581 89.1974 19.4661C89.1974 18.9501 88.9874 18.5601 88.5674 18.2961C88.1474 18.0201 87.4034 17.7201 86.3354 17.3961C85.7354 17.2161 85.2494 17.0481 84.8774 16.8921C84.5054 16.7361 84.1094 16.5201 83.6894 16.2441C83.2814 15.9561 82.9754 15.6021 82.7714 15.1821C82.5674 14.7621 82.4654 14.2701 82.4654 13.7061C82.4654 12.5901 82.8614 11.7081 83.6534 11.0601C84.4454 10.4001 85.3994 10.0701 86.5154 10.0701C87.5234 10.0701 88.4054 10.3161 89.1614 10.8081C89.9174 11.3001 90.4994 11.9781 90.9074 12.8421L89.1614 13.8501C88.6334 12.6741 87.7514 12.0861 86.5154 12.0861C85.9154 12.0861 85.4354 12.2301 85.0754 12.5181C84.7154 12.7941 84.5354 13.1721 84.5354 13.6521C84.5354 14.1201 84.7154 14.4921 85.0754 14.7681C85.4474 15.0321 86.1134 15.3141 87.0734 15.6141C87.5534 15.7701 87.9014 15.8901 88.1174 15.9741C88.3454 16.0461 88.6574 16.1661 89.0534 16.3341C89.4614 16.5021 89.7674 16.6701 89.9714 16.8381C90.1754 17.0061 90.3914 17.2161 90.6194 17.4681C90.8594 17.7201 91.0274 18.0081 91.1234 18.3321C91.2194 18.6561 91.2674 19.0221 91.2674 19.4301C91.2674 20.5701 90.8534 21.4761 90.0254 22.1481C89.2094 22.8081 88.1354 23.1381 86.8034 23.1381Z" fill="#00052B"/>
</svg>
